<?xml version="1.0" encoding="UTF-8"?>
<svg width="68px" height="68px" viewBox="0 0 68 68" version="1.1" xmlns="http://www.w3.org/2000/svg" xmlns:xlink="http://www.w3.org/1999/xlink">
    <!-- Generator: Sketch 40.1 (33804) - http://www.bohemiancoding.com/sketch -->
    <title>dotBC logo</title>
    <desc>Created with Sketch.</desc>
    <defs></defs>
    <g id="Designs-r2" stroke="none" stroke-width="1" fill="none" fill-rule="evenodd">
        <g id="A" transform="translate(-62.000000, -69.000000)" fill="#FFFFFF">
            <g id="dotBC-logo" transform="translate(62.000000, 69.000000)">
                <path d="M67.1296039,41.6774194 C67.6990576,39.2101891 68,36.640239 68,34 C68,15.2223185 52.7776815,0 34,0 C25.915686,0 18.4903734,2.82152055 12.6550868,7.53353703 L12.6550868,16.6785812 C17.6512505,10.5180859 25.2814387,6.58064516 33.8312655,6.58064516 C48.8813675,6.58064516 61.0818859,18.7811635 61.0818859,33.8312655 C61.0818859,36.5587962 60.681168,39.1927343 59.9353926,41.6774194 L67.1296039,41.6774194 Z M64.7963648,48.426799 C59.3693703,59.9916004 47.6199161,68 34,68 C15.2223185,68 0,52.7776815 0,34 C0,26.4764204 2.44368884,19.523595 6.58064516,13.891945 L6.58064516,33.9156328 C6.62626674,48.9269365 18.8092959,61.0818859 33.8312655,61.0818859 C43.5119323,61.0818859 52.0136011,56.0339952 56.8476868,48.426799 L64.7963648,48.426799 Z" id="Combined-Shape"></path>
                <path d="M34.0421836,41.5930521 C38.1192236,41.5930521 41.4243176,38.2879581 41.4243176,34.2109181 C41.4243176,30.1338781 38.1192236,26.8287841 34.0421836,26.8287841 C29.9651436,26.8287841 26.6600496,30.1338781 26.6600496,34.2109181 C26.6600496,38.2879581 29.9651436,41.5930521 34.0421836,41.5930521 Z" id="Oval-6"></path>
                <path d="M48.426799,18.2090421 C52.7791282,22.1457852 55.5136476,27.8379192 55.5136476,34.1687345 C55.5136476,46.050394 45.8816595,55.6823821 34,55.6823821 C22.1183405,55.6823821 12.4863524,46.050394 12.4863524,34.1687345 C12.4863524,22.287075 22.1183405,12.6550868 34,12.6550868 C36.4515495,12.6550868 38.8073253,13.0651427 41.0024814,13.8204085 L41.0024814,21.2496974 C38.9066478,20.0745186 36.4893898,19.4044665 33.9156328,19.4044665 C25.9013369,19.4044665 19.4044665,25.9013369 19.4044665,33.9156328 C19.4044665,41.9299286 25.9013369,48.426799 33.9156328,48.426799 C41.8736082,48.426799 48.3354107,42.020921 48.4258382,34.0843672 L48.426799,34.0843672 L48.426799,18.2090421 Z" id="Combined-Shape"></path>
            </g>
        </g>
    </g>
</svg>