<?xml version="1.0" encoding="UTF-8"?>
<svg width="20px" height="20px" viewBox="0 0 20 20" version="1.1" xmlns="http://www.w3.org/2000/svg" xmlns:xlink="http://www.w3.org/1999/xlink">
    <!-- Generator: Sketch 40.3 (33839) - http://www.bohemiancoding.com/sketch -->
    <title>Fill 1880 + Fill 1881</title>
    <desc>Created with Sketch.</desc>
    <defs></defs>
    <g id="Designs-r2" stroke="none" stroke-width="1" fill="none" fill-rule="evenodd">
        <g id="A" transform="translate(-950.000000, -690.000000)" fill="#808080">
            <g id="Fill-1880-+-Fill-1881" transform="translate(950.000000, 690.000000)">
                <path d="M9.70541667,15.71125 C9.78333333,15.7891667 9.88958333,15.8333333 10,15.8333333 C10.1104167,15.8333333 10.2166667,15.7891667 10.2945833,15.71125 L16.1279167,9.8775 C16.2470833,9.75833333 16.2829167,9.57916667 16.2183333,9.42333333 C16.15375,9.2675 16.0016667,9.16625 15.8333333,9.16625 L13.3333333,9.16666667 L13.3333333,0.416666667 C13.3333333,0.18625 13.1466667,0 12.9166667,0 L7.08333333,0 C6.85333333,0 6.66666667,0.18625 6.66666667,0.416666667 L6.66666667,9.16625 L4.16666667,9.16625 C3.99833333,9.16625 3.84625,9.2675 3.78166667,9.42333333 C3.71708333,9.57916667 3.75291667,9.75833333 3.87208333,9.8775 L9.70541667,15.71125 Z" id="Fill-1880"></path>
                <path d="M19.1666667,14.5833333 C18.70625,14.5833333 18.3333333,14.9566667 18.3333333,15.4166667 L18.3333333,18.3333333 L1.66666667,18.3333333 L1.66666667,15.4166667 C1.66666667,14.9566667 1.29333333,14.5833333 0.833333333,14.5833333 C0.372916667,14.5833333 0,14.9566667 0,15.4166667 L0,19.1666667 C0,19.6266667 0.372916667,20 0.833333333,20 L19.1666667,20 C19.6266667,20 20,19.6266667 20,19.1666667 L20,15.4166667 C20,14.9566667 19.6266667,14.5833333 19.1666667,14.5833333" id="Fill-1881"></path>
            </g>
        </g>
    </g>
</svg>