<?xml version="1.0" encoding="UTF-8"?>
<svg width="24px" height="24px" viewBox="0 0 24 24" version="1.1" xmlns="http://www.w3.org/2000/svg" xmlns:xlink="http://www.w3.org/1999/xlink">
    <!-- Generator: Sketch 40.3 (33839) - http://www.bohemiancoding.com/sketch -->
    <title>Fill 2355 + Fill 2356</title>
    <desc>Created with Sketch.</desc>
    <defs></defs>
    <g id="Designs-r2" stroke="none" stroke-width="1" fill="none" fill-rule="evenodd">
        <g id="A" transform="translate(-916.000000, -625.000000)" fill="#B9B9B9">
            <g id="Fill-2355-+-Fill-2356" transform="translate(916.000000, 625.000000)">
                <path d="M1.33333333,0 C0.323607851,0 0,1.01057614 0,2.27777778 L0,21.7222222 C0,22.9894239 0.323607851,24 1.33333333,24 L21.7777778,24 C22.7875033,24 23.1111111,22.9894239 23.1111111,21.7222222 L23.1111111,2.27777778 C23.1111111,1.01057614 22.7875033,0 21.7777778,0 L21.7777778,1.77777778 C21.5179254,1.77777778 21.3404671,1.66441981 21.2421076,1.53454078 C21.298162,1.73098927 21.3333333,1.99080543 21.3333333,2.27777778 L21.3333333,21.7222222 C21.3333333,22.0091946 21.298162,22.2690107 21.2454551,22.4336059 C21.3404671,22.3355802 21.5179254,22.2222222 21.7777778,22.2222222 L1.33333333,22.2222222 C1.59318574,22.2222222 1.77064396,22.3355802 1.86900354,22.4654592 C1.81294913,22.2690107 1.77777778,22.0091946 1.77777778,21.7222222 L1.77777778,2.27777778 C1.77777778,1.99080543 1.81294913,1.73098927 1.86565599,1.56639407 C1.77064396,1.66441981 1.59318574,1.77777778 1.33333333,1.77777778 L21.7777778,1.77777778 L21.7777778,0 L1.33333333,0 Z" id="Fill-2356"></path>
                <path d="M8.62833333,10.8503333 L10.6665556,8.81211111 L10.6665556,16.4441111 C10.6665556,16.9347778 11.0643333,17.333 11.5554444,17.333 C12.0461111,17.333 12.4443333,16.9347778 12.4443333,16.4441111 L12.4443333,8.81211111 L14.4825556,10.8503333 C14.6558889,11.0241111 14.8834444,11.1107778 15.111,11.1107778 C15.3385556,11.1107778 15.5661111,11.0241111 15.7394444,10.8503333 C16.0865556,10.5032222 16.0865556,9.94055556 15.7394444,9.59344444 L12.1843333,6.03833333 C12.143,5.997 12.0972222,5.95966667 12.0483333,5.92722222 C12.0261111,5.91211111 12.0016667,5.90188889 11.9785556,5.889 C11.951,5.87433333 11.9247778,5.85744444 11.8954444,5.84544444 C11.8656667,5.833 11.835,5.82588889 11.8043333,5.817 C11.7794444,5.80988889 11.7554444,5.80011111 11.7296667,5.79477778 C11.6145556,5.77211111 11.4963333,5.77211111 11.3812222,5.79477778 C11.3554444,5.80011111 11.3314444,5.80988889 11.3065556,5.817 C11.2758889,5.82588889 11.2447778,5.833 11.2154444,5.84544444 C11.1861111,5.85744444 11.1594444,5.87433333 11.1318889,5.889 C11.1087778,5.90188889 11.0847778,5.91211111 11.0625556,5.92722222 C11.0132222,5.95966667 10.9678889,5.997 10.9265556,6.03833333 L7.37144444,9.59344444 C7.02433333,9.94055556 7.02433333,10.5032222 7.37144444,10.8503333 C7.71811111,11.1974444 8.28166667,11.1974444 8.62833333,10.8503333" id="Fill-2355"></path>
            </g>
        </g>
    </g>
</svg>